<?xml version="1.0" encoding="utf-8"?>
<!-- Generator: Adobe Illustrator 14.0.0, SVG Export Plug-In . SVG Version: 6.00 Build 43363)  -->
<!DOCTYPE svg PUBLIC "-//W3C//DTD SVG 1.1//EN" "http://www.w3.org/Graphics/SVG/1.1/DTD/svg11.dtd">
<svg version="1.1" id="Layer_1" xmlns="http://www.w3.org/2000/svg" xmlns:xlink="http://www.w3.org/1999/xlink" x="0px" y="0px"
	 width="670.817px" height="163.467px" viewBox="0 0 670.817 163.467" enable-background="new 0 0 670.817 163.467"
	 xml:space="preserve">
<path fill="#E8AB13" d="M330.207,40.603c0,0,6.671-0.847,6.671-13.805c0-15.494-17.87-26.481-50.987-26.481
	c-8.101,0-8.101,0-8.101,0v45c-0.438,0.5-7.14,9.916-19.252,9.916c-12.533,0-19.294-9.964-19.294-9.964V0.317c0,0,0,0-7.777,0
	c-31.794,0-48.949,10.988-48.949,26.481c0,12.958,6.404,13.805,6.404,13.805s-6.404,3.661-6.404,10.142c0,6.479,0,96.344,0,101.979
	s2.744,9.859,5.947,9.859s50.78,0,50.78,0v-36.436c0,0,10.892,13.863,19.533,13.863c8.331,0,18.314-12.89,19.014-13.807v36.379
	c0,0,49.559,0,52.894,0c3.334,0,6.194-4.225,6.194-9.859s0-95.5,0-101.979C336.878,44.264,330.207,40.603,330.207,40.603z
	 M258.512,58.663c10.641,0,19.27-7.883,19.27-6.716c0,1.165-8.629,10.94-19.27,10.94c-10.642,0-19.269-9.775-19.269-10.94
	C239.243,50.779,247.87,58.663,258.512,58.663z M269.665,99.516c0,1.195-4.983,6.716-11.128,6.716s-11.127-5.521-11.127-6.716
	s4.982,2.383,11.127,2.383S269.665,98.321,269.665,99.516z M277.79,99.794c-0.631,3.089-9.006,19.218-19.252,19.218
	c-10.657,0-19.294-17.457-19.294-19.531c0-2.075,8.637,12.019,19.294,12.019c10.247,0,18.622-13.021,19.252-12.181V99.794z"/>
<path fill="#E8AB13" d="M109.016,121.927c-6.062,3.144-12.837,4.715-20.321,4.715c-6.438,0-12.35-1.046-17.739-3.143
	c-5.389-2.095-9.992-5.127-13.809-9.095c-3.817-3.964-6.814-8.719-8.982-14.258c-2.172-5.537-3.256-11.678-3.256-18.413
	c0-6.736,1.084-12.873,3.256-18.413c2.168-5.536,5.165-10.29,8.982-14.258c3.817-3.965,8.42-6.996,13.809-9.095
	c5.389-2.094,11.301-3.144,17.739-3.144c7.484,0,14.259,1.572,20.321,4.716c6.063,3.144,11.638,7.712,16.729,13.697l28.292-25.598
	c-7.634-9.578-17.177-16.915-28.629-22.004C113.956,2.547,100.967,0,86.449,0C74.022,0,62.535,1.986,51.981,5.951
	c-10.553,3.968-19.686,9.62-27.395,16.953C16.875,30.24,10.852,38.884,6.511,48.838C2.168,58.795,0,69.759,0,81.734
	c0,11.978,2.168,22.942,6.511,32.896c4.34,9.957,10.364,18.603,18.076,25.936c7.709,7.336,16.841,12.988,27.395,16.951
	c10.554,3.965,22.041,5.951,34.467,5.951c14.518,0,27.507-2.582,38.958-7.746c11.452-5.165,20.995-12.463,28.629-21.893
	l-28.292-25.599C120.654,114.218,115.079,118.784,109.016,121.927z"/>
<polygon fill="#E8AB13" points="414.368,126.695 414.368,97.954 484.201,97.954 484.201,64.721 414.368,64.721 414.368,38.225 
	493.632,38.225 493.632,3.87 370.357,3.87 370.357,161.05 496.551,161.05 496.551,126.695 "/>
<polygon fill="#E8AB13" points="588.181,125.799 667.448,31.716 667.448,3.872 532.051,3.872 532.051,39.125 609.297,39.125 
	530.03,133.209 530.03,161.053 670.817,161.053 670.817,125.799 "/>
</svg>
