<?xml version="1.0" encoding="utf-8"?>
<!-- Generator: Adobe Illustrator 14.0.0, SVG Export Plug-In . SVG Version: 6.00 Build 43363)  -->
<!DOCTYPE svg PUBLIC "-//W3C//DTD SVG 1.1//EN" "http://www.w3.org/Graphics/SVG/1.1/DTD/svg11.dtd">
<svg version="1.1" id="Layer_1" xmlns="http://www.w3.org/2000/svg" xmlns:xlink="http://www.w3.org/1999/xlink" x="0px" y="0px"
	 width="499.842px" height="182.895px" viewBox="0 0 499.842 182.895" enable-background="new 0 0 499.842 182.895"
	 xml:space="preserve">
<path fill="#E8AB13" d="M499.842,91.447c0,14.912-12.089,27-27,27c-13.378,0-24.477-9.731-26.619-22.5h-26.618v65.348
	c0,11.929-9.671,21.6-21.601,21.6H101.836c-11.93,0-21.6-9.671-21.6-21.6V95.947H53.62c-2.144,12.769-13.243,22.5-26.62,22.5
	c-14.912,0-27-12.089-27-27s12.088-27,27-27c13.378,0,24.477,9.731,26.62,22.5h26.617V21.6c0-11.929,9.67-21.6,21.6-21.6h296.168
	c11.93,0,21.601,9.671,21.601,21.6v65.347h26.617c2.144-12.769,13.242-22.5,26.62-22.5
	C487.753,64.447,499.842,76.535,499.842,91.447z M334.894,91.447c0,14.912,12.088,27,27,27c14.911,0,27-12.089,27-27
	s-12.089-27-27-27C346.982,64.447,334.894,76.535,334.894,91.447z M110.947,91.447c0,14.912,12.088,27,27,27s27-12.089,27-27
	s-12.089-27-27-27S110.947,76.535,110.947,91.447z M249.921,148.521c17.354,0,31.473-14.12,31.473-31.475c0-2.485-2.015-4.5-4.5-4.5
	s-4.5,2.015-4.5,4.5c0,12.393-10.081,22.475-22.473,22.475c-12.393,0-22.475-10.082-22.475-22.475c0-2.485-2.015-4.5-4.5-4.5
	s-4.5,2.015-4.5,4.5C218.446,134.402,232.566,148.521,249.921,148.521L249.921,148.521z"/>
</svg>
